<?xml version="1.0" encoding="utf-8"?>
<svg viewBox="0 0 24 24" width="24" height="24" xmlns="http://www.w3.org/2000/svg">
  <path d="M 6.673 5.629 C 6.183 5.629 5.786 5.996 5.786 6.45 L 5.814 16.586 C 6.206 18.291 7.441 17.362 7.433 16.54 C 7.43 16.165 7.587 6.525 7.562 6.45 C 7.562 5.996 7.165 5.629 6.673 5.629 Z M 12.3 5.586 C 11.809 5.586 11.411 5.996 11.411 6.45 L 11.422 11.103 L 11.397 16.552 C 11.25 17.857 13.041 18.045 13.115 16.61 C 13.15 15.935 13.217 11.577 13.217 11.282 L 13.188 6.45 C 13.188 5.996 12.791 5.586 12.3 5.586 Z M 17.037 6.45 C 17.037 5.819 17.777 5.423 18.37 5.738 C 18.644 5.886 18.813 6.156 18.813 6.45 L 18.813 16.864 C 18.813 17.496 18.073 17.892 17.48 17.574 C 17.207 17.428 17.037 17.157 17.037 16.864 L 17.037 6.45 Z" style="" transform="matrix(0, -1.000007, 0.999993, 0, 0.642744, 23.956426)"/>
  <path fill-rule="evenodd" d="M3.75 2A1.75 1.75 0 002 3.75v16.5c0 .966.784 1.75 1.75 1.75h16.5A1.75 1.75 0 0022 20.25V3.75A1.75 1.75 0 0020.25 2H3.75zM3.5 3.75a.25.25 0 01.25-.25h16.5a.25.25 0 01.25.25v16.5a.25.25 0 01-.25.25H3.75a.25.25 0 01-.25-.25V3.75z"/>
</svg>